{
  "accessors": [
    {
      "bufferView": 2,
      "componentType": 5126,
      "count": 1596,
      "max": [
        5.671598434448242,
        30.568849563598633,
        9.8779296875
      ],
      "min": [
        -11.40848159790039,
        -27.211910247802734,
        -0.17577999830245972
      ],
      "type": "VEC3"
    },
    {
      "bufferView": 2,
      "byteOffset": 19152,
      "componentType": 5126,
      "count": 1596,
      "max": [
        0.9996773600578308,
        0.9333739280700684,
        0.1969989687204361
      ],
      "min": [
        -0.9996772408485413,
        -0.9924532771110535,
        -0.2017095685005188
      ],
      "type": "VEC3"
    },
    {
      "bufferView": 1,
      "componentType": 5126,
      "count": 1596,
      "max": [
        1.148926019668579,
        1.0
      ],
      "min": [
        0.14990200102329254,
        0.0
      ],
      "type": "VEC2"
    },
    {
      "bufferView": 0,
      "componentType": 5125,
      "count": 1596,
      "type": "SCALAR"
    },
    {
      "bufferView": 2,
      "byteOffset": 38304,
      "componentType": 5126,
      "count": 32,
      "max": [
        0.0634765625,
        2.32275390625,
        0.201171875
      ],
      "min": [
        -0.43994140625,
        -2.31298828125,
        -0.191162109375
      ],
      "type": "VEC3"
    },
    {
      "bufferView": 2,
      "byteOffset": 38688,
      "componentType": 5126,
      "count": 32,
      "max": [
        0.0026928673032671213,
        0.11373432725667953,
        0.9987984299659729
      ],
      "min": [
        -0.2866341471672058,
        -0.48899906873703003,
        0.8503202795982361
      ],
      "type": "VEC3"
    },
    {
      "bufferView": 1,
      "byteOffset": 12768,
      "componentType": 5126,
      "count": 32,
      "max": [
        1.0,
        1.0
      ],
      "min": [
        0.0,
        0.0
      ],
      "type": "VEC2"
    },
    {
      "bufferView": 0,
      "byteOffset": 6384,
      "componentType": 5125,
      "count": 60,
      "type": "SCALAR"
    },
    {
      "bufferView": 2,
      "byteOffset": 39072,
      "componentType": 5126,
      "count": 333,
      "max": [
        2.7626953125,
        3.218017578125,
        0.350341796875
      ],
      "min": [
        -2.6572265625,
        -2.9306640625,
        -0.243408203125
      ],
      "type": "VEC3"
    },
    {
      "bufferView": 2,
      "byteOffset": 43068,
      "componentType": 5126,
      "count": 333,
      "max": [
        0.5263602137565613,
        0.5116427540779114,
        1.0
      ],
      "min": [
        -0.5950889587402344,
        -0.7466663122177124,
        0.662476122379303
      ],
      "type": "VEC3"
    },
    {
      "bufferView": 1,
      "byteOffset": 13024,
      "componentType": 5126,
      "count": 333,
      "max": [
        1.0,
        1.0
      ],
      "min": [
        0.0,
        0.0
      ],
      "type": "VEC2"
    },
    {
      "bufferView": 0,
      "byteOffset": 6624,
      "componentType": 5125,
      "count": 501,
      "type": "SCALAR"
    },
    {
      "bufferView": 2,
      "byteOffset": 47064,
      "componentType": 5126,
      "count": 8,
      "max": [
        -3.110595703125,
        0.19921875,
        1.27880859375
      ],
      "min": [
        -3.14697265625,
        -1.958740234375,
        -0.054443359375
      ],
      "type": "VEC3"
    },
    {
      "bufferView": 2,
      "byteOffset": 47160,
      "componentType": 5126,
      "count": 8,
      "max": [
        0.9997228384017944,
        0.035880573093891144,
        0.014287035912275314
      ],
      "min": [
        0.9993351101875305,
        -0.024910200387239456,
        -0.0064892638474702835
      ],
      "type": "VEC3"
    },
    {
      "bufferView": 1,
      "byteOffset": 15688,
      "componentType": 5126,
      "count": 8,
      "max": [
        1.0,
        1.0
      ],
      "min": [
        0.0,
        0.0
      ],
      "type": "VEC2"
    },
    {
      "bufferView": 1,
      "byteOffset": 15752,
      "componentType": 5126,
      "count": 8,
      "max": [
        1.0,
        1.0
      ],
      "min": [
        0.0,
        0.0
      ],
      "type": "VEC2"
    },
    {
      "bufferView": 0,
      "byteOffset": 8628,
      "componentType": 5125,
      "count": 12,
      "type": "SCALAR"
    },
    {
      "bufferView": 2,
      "byteOffset": 47256,
      "componentType": 5126,
      "count": 136,
      "max": [
        -0.199462890625,
        -0.190673828125,
        0.267333984375
      ],
      "min": [
        -0.634765625,
        -2.165771484375,
        -0.233642578125
      ],
      "type": "VEC3"
    },
    {
      "bufferView": 2,
      "byteOffset": 48888,
      "componentType": 5126,
      "count": 136,
      "max": [
        0.9824119210243225,
        0.2611764371395111,
        0.9972431063652039
      ],
      "min": [
        -0.2396320104598999,
        -0.9641862511634827,
        0.07392561435699463
      ],
      "type": "VEC3"
    },
    {
      "bufferView": 1,
      "byteOffset": 15816,
      "componentType": 5126,
      "count": 136,
      "max": [
        1.199951171875,
        1.0
      ],
      "min": [
        0.0,
        0.0
      ],
      "type": "VEC2"
    },
    {
      "bufferView": 0,
      "byteOffset": 8676,
      "componentType": 5125,
      "count": 234,
      "type": "SCALAR"
    },
    {
      "bufferView": 2,
      "byteOffset": 50520,
      "componentType": 5126,
      "count": 52,
      "max": [
        2.299072265625,
        3.11767578125,
        2.24169921875
      ],
      "min": [
        -2.767333984375,
        -3.165283203125,
        -0.26611328125
      ],
      "type": "VEC3"
    },
    {
      "bufferView": 2,
      "byteOffset": 51144,
      "componentType": 5126,
      "count": 52,
      "max": [
        1.0,
        0.9999958872795105,
        9.60762827162398e-06
      ],
      "min": [
        -1.0,
        0.0,
        -0.00010237854439765215
      ],
      "type": "VEC3"
    },
    {
      "bufferView": 1,
      "byteOffset": 16904,
      "componentType": 5126,
      "count": 52,
      "max": [
        1.0,
        1.0
      ],
      "min": [
        0.0,
        0.0
      ],
      "type": "VEC2"
    },
    {
      "bufferView": 1,
      "byteOffset": 17320,
      "componentType": 5126,
      "count": 52,
      "max": [
        1.0,
        1.0
      ],
      "min": [
        0.0,
        0.0
      ],
      "type": "VEC2"
    },
    {
      "bufferView": 0,
      "byteOffset": 9612,
      "componentType": 5125,
      "count": 96,
      "type": "SCALAR"
    },
    {
      "bufferView": 2,
      "byteOffset": 51768,
      "componentType": 5126,
      "count": 404,
      "max": [
        1.73388671875,
        3.314453125,
        0.27880859375
      ],
      "min": [
        -2.116943359375,
        -2.74609375,
        -0.248046875
      ],
      "type": "VEC3"
    },
    {
      "bufferView": 2,
      "byteOffset": 56616,
      "componentType": 5126,
      "count": 404,
      "max": [
        0.40683048963546753,
        0.5242974162101746,
        1.0
      ],
      "min": [
        -0.8018704056739807,
        -0.7925207018852234,
        0.5947510004043579
      ],
      "type": "VEC3"
    },
    {
      "bufferView": 1,
      "byteOffset": 17736,
      "componentType": 5126,
      "count": 404,
      "max": [
        1.0,
        1.0
      ],
      "min": [
        0.0,
        0.0
      ],
      "type": "VEC2"
    },
    {
      "bufferView": 1,
      "byteOffset": 20968,
      "componentType": 5126,
      "count": 404,
      "max": [
        1.0,
        1.0
      ],
      "min": [
        0.0,
        0.0
      ],
      "type": "VEC2"
    },
    {
      "bufferView": 0,
      "byteOffset": 9996,
      "componentType": 5125,
      "count": 600,
      "type": "SCALAR"
    },
    {
      "bufferView": 2,
      "byteOffset": 61464,
      "componentType": 5126,
      "count": 115,
      "max": [
        0.34912109375,
        2.290771484375,
        0.380615234375
      ],
      "min": [
        -1.174072265625,
        -2.6982421875,
        -0.2265625
      ],
      "type": "VEC3"
    },
    {
      "bufferView": 2,
      "byteOffset": 62844,
      "componentType": 5126,
      "count": 115,
      "max": [
        0.9999566674232483,
        0.09976048022508621,
        0.6014026403427124
      ],
      "min": [
        -0.02904374524950981,
        -0.9980587959289551,
        -0.6942150592803955
      ],
      "type": "VEC3"
    },
    {
      "bufferView": 1,
      "byteOffset": 24200,
      "componentType": 5126,
      "count": 115,
      "max": [
        1.0,
        1.0
      ],
      "min": [
        0.0,
        0.0
      ],
      "type": "VEC2"
    },
    {
      "bufferView": 1,
      "byteOffset": 25120,
      "componentType": 5126,
      "count": 115,
      "max": [
        1.0,
        1.0
      ],
      "min": [
        0.0,
        0.0
      ],
      "type": "VEC2"
    },
    {
      "bufferView": 0,
      "byteOffset": 12396,
      "componentType": 5125,
      "count": 234,
      "type": "SCALAR"
    },
    {
      "bufferView": 2,
      "byteOffset": 64224,
      "componentType": 5126,
      "count": 741,
      "max": [
        1.74072265625,
        3.29150390625,
        0.44921875
      ],
      "min": [
        -1.6787109375,
        -2.701171875,
        -0.23291015625
      ],
      "type": "VEC3"
    },
    {
      "bufferView": 2,
      "byteOffset": 73116,
      "componentType": 5126,
      "count": 741,
      "max": [
        0.9999099373817444,
        0.9943079352378845,
        0.993649423122406
      ],
      "min": [
        -0.9998612403869629,
        -0.9998393654823303,
        -0.9236277341842651
      ],
      "type": "VEC3"
    },
    {
      "bufferView": 1,
      "byteOffset": 26040,
      "componentType": 5126,
      "count": 741,
      "max": [
        1.0,
        1.0
      ],
      "min": [
        0.0,
        0.0
      ],
      "type": "VEC2"
    },
    {
      "bufferView": 1,
      "byteOffset": 31968,
      "componentType": 5126,
      "count": 741,
      "max": [
        1.0,
        1.0
      ],
      "min": [
        0.0,
        0.0
      ],
      "type": "VEC2"
    },
    {
      "bufferView": 0,
      "byteOffset": 13332,
      "componentType": 5125,
      "count": 1476,
      "type": "SCALAR"
    },
    {
      "bufferView": 2,
      "byteOffset": 82008,
      "componentType": 5126,
      "count": 344,
      "max": [
        0.349365234375,
        3.16455078125,
        0.44921875
      ],
      "min": [
        -1.633544921875,
        -2.347900390625,
        -0.191162109375
      ],
      "type": "VEC3"
    },
    {
      "bufferView": 2,
      "byteOffset": 86136,
      "componentType": 5126,
      "count": 344,
      "max": [
        0.9999586343765259,
        0.31356245279312134,
        0.6091925501823425
      ],
      "min": [
        -0.9964759945869446,
        -0.9975345730781555,
        -0.8330146074295044
      ],
      "type": "VEC3"
    },
    {
      "bufferView": 1,
      "byteOffset": 37896,
      "componentType": 5126,
      "count": 344,
      "max": [
        1.0,
        1.0
      ],
      "min": [
        0.0,
        0.0
      ],
      "type": "VEC2"
    },
    {
      "bufferView": 1,
      "byteOffset": 40648,
      "componentType": 5126,
      "count": 344,
      "max": [
        1.0,
        1.0
      ],
      "min": [
        0.0,
        0.0
      ],
      "type": "VEC2"
    },
    {
      "bufferView": 0,
      "byteOffset": 19236,
      "componentType": 5125,
      "count": 711,
      "type": "SCALAR"
    },
    {
      "bufferView": 2,
      "byteOffset": 90264,
      "componentType": 5126,
      "count": 6,
      "max": [
        0.365234375,
        3.38232421875,
        0.0
      ],
      "min": [
        -0.1875,
        3.125,
        0.0
      ],
      "type": "VEC3"
    },
    {
      "bufferView": 2,
      "byteOffset": 90336,
      "componentType": 5126,
      "count": 6,
      "max": [
        0.0,
        0.0,
        1.0
      ],
      "min": [
        0.0,
        0.0,
        1.0
      ],
      "type": "VEC3"
    },
    {
      "bufferView": 1,
      "byteOffset": 43400,
      "componentType": 5126,
      "count": 6,
      "max": [
        1.0,
        1.0
      ],
      "min": [
        0.0,
        0.0
      ],
      "type": "VEC2"
    },
    {
      "bufferView": 0,
      "byteOffset": 22080,
      "componentType": 5125,
      "count": 12,
      "type": "SCALAR"
    },
    {
      "bufferView": 2,
      "byteOffset": 90408,
      "componentType": 5126,
      "count": 363,
      "max": [
        2.3408203125,
        3.687744140625,
        0.201904296875
      ],
      "min": [
        -2.08251953125,
        -2.69873046875,
        -0.24462890625
      ],
      "type": "VEC3"
    },
    {
      "bufferView": 2,
      "byteOffset": 94764,
      "componentType": 5126,
      "count": 363,
      "max": [
        0.1889258176088333,
        0.1468789428472519,
        1.0
      ],
      "min": [
        -0.15160638093948364,
        -0.33573654294013977,
        0.9328174591064453
      ],
      "type": "VEC3"
    },
    {
      "bufferView": 1,
      "byteOffset": 43448,
      "componentType": 5126,
      "count": 363,
      "max": [
        1.0,
        1.0
      ],
      "min": [
        0.0,
        0.0
      ],
      "type": "VEC2"
    },
    {
      "bufferView": 0,
      "byteOffset": 22128,
      "componentType": 5125,
      "count": 708,
      "type": "SCALAR"
    },
    {
      "bufferView": 2,
      "byteOffset": 99120,
      "componentType": 5126,
      "count": 390,
      "max": [
        2.325927734375,
        3.46826171875,
        0.201904296875
      ],
      "min": [
        -1.863037109375,
        -2.479736328125,
        -0.24462890625
      ],
      "type": "VEC3"
    },
    {
      "bufferView": 2,
      "byteOffset": 103800,
      "componentType": 5126,
      "count": 390,
      "max": [
        0.2552497684955597,
        0.14648930728435516,
        1.0
      ],
      "min": [
        -0.4227515459060669,
        -0.42733797430992126,
        0.8513422012329102
      ],
      "type": "VEC3"
    },
    {
      "bufferView": 1,
      "byteOffset": 46352,
      "componentType": 5126,
      "count": 390,
      "max": [
        1.0,
        1.0
      ],
      "min": [
        0.0,
        0.0
      ],
      "type": "VEC2"
    },
    {
      "bufferView": 0,
      "byteOffset": 24960,
      "componentType": 5125,
      "count": 696,
      "type": "SCALAR"
    },
    {
      "bufferView": 2,
      "byteOffset": 108480,
      "componentType": 5126,
      "count": 32,
      "max": [
        0.348876953125,
        2.30859375,
        0.201171875
      ],
      "min": [
        -0.31201171875,
        -2.51123046875,
        -0.191162109375
      ],
      "type": "VEC3"
    },
    {
      "bufferView": 2,
      "byteOffset": 108864,
      "componentType": 5126,
      "count": 32,
      "max": [
        0.0025805123150348663,
        0.11434949934482574,
        0.9987602233886719
      ],
      "min": [
        -0.16722583770751953,
        -0.30737945437431335,
        0.9440112709999084
      ],
      "type": "VEC3"
    },
    {
      "bufferView": 1,
      "byteOffset": 49472,
      "componentType": 5126,
      "count": 32,
      "max": [
        1.0,
        1.0
      ],
      "min": [
        0.0,
        0.0
      ],
      "type": "VEC2"
    },
    {
      "bufferView": 0,
      "byteOffset": 27744,
      "componentType": 5125,
      "count": 60,
      "type": "SCALAR"
    },
    {
      "bufferView": 2,
      "byteOffset": 109248,
      "componentType": 5126,
      "count": 282,
      "max": [
        2.7626953125,
        3.235107421875,
        0.359619140625
      ],
      "min": [
        -1.333984375,
        -3.0771484375,
        -0.255859375
      ],
      "type": "VEC3"
    },
    {
      "bufferView": 2,
      "byteOffset": 112632,
      "componentType": 5126,
      "count": 282,
      "max": [
        0.6239063143730164,
        0.5016931891441345,
        1.0
      ],
      "min": [
        -0.6330937147140503,
        -0.527503252029419,
        0.725776731967926
      ],
      "type": "VEC3"
    },
    {
      "bufferView": 1,
      "byteOffset": 49728,
      "componentType": 5126,
      "count": 282,
      "max": [
        1.0,
        1.0
      ],
      "min": [
        0.0,
        0.0
      ],
      "type": "VEC2"
    },
    {
      "bufferView": 0,
      "byteOffset": 27984,
      "componentType": 5125,
      "count": 420,
      "type": "SCALAR"
    },
    {
      "bufferView": 2,
      "byteOffset": 116016,
      "componentType": 5126,
      "count": 32,
      "max": [
        2.394287109375,
        4.05615234375,
        2.11474609375
      ],
      "min": [
        -3.129638671875,
        -3.15869140625,
        -0.08251953125
      ],
      "type": "VEC3"
    },
    {
      "bufferView": 2,
      "byteOffset": 116400,
      "componentType": 5126,
      "count": 32,
      "max": [
        1.0,
        0.2897561192512512,
        0.04136808589100838
      ],
      "min": [
        -0.999984622001648,
        -0.997266411781311,
        -0.00022993939637672156
      ],
      "type": "VEC3"
    },
    {
      "bufferView": 1,
      "byteOffset": 51984,
      "componentType": 5126,
      "count": 32,
      "max": [
        1.0,
        1.0
      ],
      "min": [
        0.0,
        0.0
      ],
      "type": "VEC2"
    },
    {
      "bufferView": 1,
      "byteOffset": 52240,
      "componentType": 5126,
      "count": 32,
      "max": [
        1.0,
        1.0
      ],
      "min": [
        0.0,
        0.0
      ],
      "type": "VEC2"
    },
    {
      "bufferView": 0,
      "byteOffset": 29664,
      "componentType": 5125,
      "count": 48,
      "type": "SCALAR"
    },
    {
      "bufferView": 2,
      "byteOffset": 116784,
      "componentType": 5126,
      "count": 1088,
      "max": [
        2.297119140625,
        4.145751953125,
        1.98291015625
      ],
      "min": [
        -3.21728515625,
        -3.0625,
        -0.499267578125
      ],
      "type": "VEC3"
    },
    {
      "bufferView": 2,
      "byteOffset": 129840,
      "componentType": 5126,
      "count": 1088,
      "max": [
        0.9999487400054932,
        0.9999197721481323,
        0.00013437347661238164
      ],
      "min": [
        -0.9999487400054932,
        -0.9987478256225586,
        -2.6037161660497077e-05
      ],
      "type": "VEC3"
    },
    {
      "bufferView": 1,
      "byteOffset": 52496,
      "componentType": 5126,
      "count": 1088,
      "max": [
        1.0,
        1.0
      ],
      "min": [
        0.0,
        0.0
      ],
      "type": "VEC2"
    },
    {
      "bufferView": 1,
      "byteOffset": 61200,
      "componentType": 5126,
      "count": 1088,
      "max": [
        1.0,
        1.0
      ],
      "min": [
        0.0,
        0.0
      ],
      "type": "VEC2"
    },
    {
      "bufferView": 0,
      "byteOffset": 29856,
      "componentType": 5125,
      "count": 3264,
      "type": "SCALAR"
    },
    {
      "bufferView": 2,
      "byteOffset": 142896,
      "componentType": 5126,
      "count": 6124,
      "max": [
        2.76708984375,
        4.193359375,
        0.359619140625
      ],
      "min": [
        -3.243408203125,
        -3.1181640625,
        -0.255859375
      ],
      "type": "VEC3"
    },
    {
      "bufferView": 2,
      "byteOffset": 216384,
      "componentType": 5126,
      "count": 6124,
      "max": [
        0.8387898802757263,
        0.4904179275035858,
        1.0
      ],
      "min": [
        -0.8696250915527344,
        -0.9050998687744141,
        0.3815390467643738
      ],
      "type": "VEC3"
    },
    {
      "bufferView": 1,
      "byteOffset": 69904,
      "componentType": 5126,
      "count": 6124,
      "max": [
        1.0,
        1.0
      ],
      "min": [
        0.0,
        0.0
      ],
      "type": "VEC2"
    },
    {
      "bufferView": 0,
      "byteOffset": 42912,
      "componentType": 5125,
      "count": 9192,
      "type": "SCALAR"
    },
    {
      "bufferView": 2,
      "byteOffset": 289872,
      "componentType": 5126,
      "count": 34604,
      "max": [
        7.841800212860107,
        5.698239803314209,
        21.19873046875
      ],
      "min": [
        -10.668950080871582,
        -27.844240188598633,
        11.564940452575684
      ],
      "type": "VEC3"
    },
    {
      "bufferView": 2,
      "byteOffset": 705120,
      "componentType": 5126,
      "count": 34604,
      "max": [
        0.9752978086471558,
        0.9778397679328918,
        0.9987486004829407
      ],
      "min": [
        -0.9998795986175537,
        -0.9891301393508911,
        -0.9998679161071777
      ],
      "type": "VEC3"
    },
    {
      "bufferView": 1,
      "byteOffset": 118896,
      "componentType": 5126,
      "count": 34604,
      "max": [
        1.0,
        1.0
      ],
      "min": [
        0.0,
        0.0
      ],
      "type": "VEC2"
    },
    {
      "bufferView": 1,
      "byteOffset": 395728,
      "componentType": 5126,
      "count": 34604,
      "max": [
        1.0,
        1.0
      ],
      "min": [
        0.0,
        0.0
      ],
      "type": "VEC2"
    },
    {
      "bufferView": 0,
      "byteOffset": 79680,
      "componentType": 5125,
      "count": 66312,
      "type": "SCALAR"
    },
    {
      "bufferView": 2,
      "byteOffset": 1120368,
      "componentType": 5126,
      "count": 30920,
      "max": [
        8.950200080871582,
        35.048828125,
        17.099609375
      ],
      "min": [
        -7.8125,
        1.2255899906158447,
        8.833009719848633
      ],
      "type": "VEC3"
    },
    {
      "bufferView": 2,
      "byteOffset": 1491408,
      "componentType": 5126,
      "count": 30920,
      "max": [
        0.9449355602264404,
        0.9977922439575195,
        0.9999418258666992
      ],
      "min": [
        -0.9658287763595581,
        -0.9544010162353516,
        -0.9999508857727051
      ],
      "type": "VEC3"
    },
    {
      "bufferView": 1,
      "byteOffset": 672560,
      "componentType": 5126,
      "count": 30920,
      "max": [
        1.0,
        1.0
      ],
      "min": [
        0.0,
        0.0
      ],
      "type": "VEC2"
    },
    {
      "bufferView": 1,
      "byteOffset": 919920,
      "componentType": 5126,
      "count": 30920,
      "max": [
        1.0,
        1.0
      ],
      "min": [
        0.0,
        0.0
      ],
      "type": "VEC2"
    },
    {
      "bufferView": 0,
      "byteOffset": 344928,
      "componentType": 5125,
      "count": 51780,
      "type": "SCALAR"
    },
    {
      "bufferView": 2,
      "byteOffset": 1862448,
      "componentType": 5126,
      "count": 35357,
      "max": [
        8.168950080871582,
        31.884769439697266,
        15.732422828674316
      ],
      "min": [
        -10.36376953125,
        -27.878419876098633,
        -0.021970000118017197
      ],
      "type": "VEC3"
    },
    {
      "bufferView": 2,
      "byteOffset": 2286732,
      "componentType": 5126,
      "count": 35357,
      "max": [
        1.0,
        0.9992393851280212,
        1.0
      ],
      "min": [
        -0.9999912977218628,
        -0.9942294955253601,
        -1.0
      ],
      "type": "VEC3"
    },
    {
      "bufferView": 1,
      "byteOffset": 1167280,
      "componentType": 5126,
      "count": 35357,
      "max": [
        1.148926019668579,
        1.0
      ],
      "min": [
        0.0,
        0.0
      ],
      "type": "VEC2"
    },
    {
      "bufferView": 0,
      "byteOffset": 552048,
      "componentType": 5125,
      "count": 35382,
      "type": "SCALAR"
    },
    {
      "bufferView": 2,
      "byteOffset": 2711016,
      "componentType": 5126,
      "count": 57138,
      "max": [
        8.151860237121582,
        31.599119186401367,
        12.995611190795898
      ],
      "min": [
        -10.136719703674316,
        -28.4912109375,
        -2.9003899097442627
      ],
      "type": "VEC3"
    },
    {
      "bufferView": 2,
      "byteOffset": 3396672,
      "componentType": 5126,
      "count": 57138,
      "max": [
        0.9999140501022339,
        0.9999361038208008,
        0.2683992385864258
      ],
      "min": [
        -0.9998587369918823,
        -0.9969335198402405,
        -0.2861896753311157
      ],
      "type": "VEC3"
    },
    {
      "bufferView": 1,
      "byteOffset": 1450136,
      "componentType": 5126,
      "count": 57138,
      "max": [
        1.148926019668579,
        1.0
      ],
      "min": [
        0.14990200102329254,
        0.0
      ],
      "type": "VEC2"
    },
    {
      "bufferView": 0,
      "byteOffset": 693576,
      "componentType": 5125,
      "count": 57186,
      "type": "SCALAR"
    },
    {
      "bufferView": 2,
      "byteOffset": 4082328,
      "componentType": 5126,
      "count": 1542,
      "max": [
        7.912600040435791,
        30.537109375,
        7.131350040435791
      ],
      "min": [
        -9.160160064697266,
        -27.614749908447266,
        -2.4755799770355225
      ],
      "type": "VEC3"
    },
    {
      "bufferView": 2,
      "byteOffset": 4100832,
      "componentType": 5126,
      "count": 1542,
      "max": [
        0.999746561050415,
        0.9184685945510864,
        0.1551997810602188
      ],
      "min": [
        -0.9997464418411255,
        -0.98896723985672,
        -0.15530234575271606
      ],
      "type": "VEC3"
    },
    {
      "bufferView": 1,
      "byteOffset": 1907240,
      "componentType": 5126,
      "count": 1542,
      "max": [
        1.148926019668579,
        1.0
      ],
      "min": [
        0.14990200102329254,
        0.0
      ],
      "type": "VEC2"
    },
    {
      "bufferView": 0,
      "byteOffset": 922320,
      "componentType": 5125,
      "count": 1542,
      "type": "SCALAR"
    },
    {
      "bufferView": 2,
      "byteOffset": 4119336,
      "componentType": 5126,
      "count": 56085,
      "max": [
        8.388669967651367,
        3.247070074081421,
        17.851560592651367
      ],
      "min": [
        -12.06054973602295,
        -29.2797908782959,
        5.983890056610107
      ],
      "type": "VEC3"
    },
    {
      "bufferView": 2,
      "byteOffset": 4792356,
      "componentType": 5126,
      "count": 56085,
      "max": [
        0.9672896265983582,
        0.9294113516807556,
        0.9999409914016724
      ],
      "min": [
        -0.9909741282463074,
        -0.8784001469612122,
        -0.99991774559021
      ],
      "type": "VEC3"
    },
    {
      "bufferView": 1,
      "byteOffset": 1919576,
      "componentType": 5126,
      "count": 56085,
      "max": [
        1.0,
        1.0
      ],
      "min": [
        0.0,
        0.0
      ],
      "type": "VEC2"
    },
    {
      "bufferView": 1,
      "byteOffset": 2368256,
      "componentType": 5126,
      "count": 56085,
      "max": [
        1.0,
        1.0
      ],
      "min": [
        0.0,
        0.0
      ],
      "type": "VEC2"
    },
    {
      "bufferView": 0,
      "byteOffset": 928488,
      "componentType": 5125,
      "count": 95028,
      "type": "SCALAR"
    },
    {
      "bufferView": 2,
      "byteOffset": 5465376,
      "componentType": 5126,
      "count": 44871,
      "max": [
        8.706049919128418,
        33.881839752197266,
        20.458980560302734
      ],
      "min": [
        -5.559080123901367,
        2.7368199825286865,
        11.889650344848633
      ],
      "type": "VEC3"
    },
    {
      "bufferView": 2,
      "byteOffset": 6003828,
      "componentType": 5126,
      "count": 44871,
      "max": [
        0.9859676957130432,
        0.9527287483215332,
        0.9982008337974548
      ],
      "min": [
        -0.999871015548706,
        -0.9941900372505188,
        -0.999991774559021
      ],
      "type": "VEC3"
    },
    {
      "bufferView": 1,
      "byteOffset": 2816936,
      "componentType": 5126,
      "count": 44871,
      "max": [
        1.0,
        1.0
      ],
      "min": [
        0.0,
        0.0
      ],
      "type": "VEC2"
    },
    {
      "bufferView": 1,
      "byteOffset": 3175904,
      "componentType": 5126,
      "count": 44871,
      "max": [
        1.0,
        1.0
      ],
      "min": [
        0.0,
        0.0
      ],
      "type": "VEC2"
    },
    {
      "bufferView": 0,
      "byteOffset": 1308600,
      "componentType": 5125,
      "count": 85908,
      "type": "SCALAR"
    }
  ],
  "asset": {
    "extras": {
      "author": "Asadawut.Kaewma (https://sketchfab.com/Asadawut.Kaewma)",
      "license": "CC-BY-4.0 (http://creativecommons.org/licenses/by/4.0/)",
      "source": "https://sketchfab.com/3d-models/sagano-bamboo-forest-bb3928c27f73482cab8810f21e821a6c",
      "title": "Sagano Bamboo Forest"
    },
    "generator": "Sketchfab-16.62.0",
    "version": "2.0"
  },
  "bufferViews": [
    {
      "buffer": 0,
      "byteLength": 1652232,
      "name": "floatBufferViews",
      "target": 34963
    },
    {
      "buffer": 0,
      "byteLength": 3534872,
      "byteOffset": 1652232,
      "byteStride": 8,
      "name": "floatBufferViews",
      "target": 34962
    },
    {
      "buffer": 0,
      "byteLength": 6542280,
      "byteOffset": 5187104,
      "byteStride": 12,
      "name": "floatBufferViews",
      "target": 34962
    }
  ],
  "buffers": [
    {
      "byteLength": 11729384,
      "uri": "scene.bin"
    }
  ],
  "images": [
    {
      "uri": "textures/Material_1596_baseColor.png"
    },
    {
      "uri": "textures/Material_977_baseColor.png"
    },
    {
      "uri": "textures/Material_979_baseColor.png"
    },
    {
      "uri": "textures/Material_4_baseColor.png"
    },
    {
      "uri": "textures/Material_150_baseColor.png"
    },
    {
      "uri": "textures/Material_3_baseColor.png"
    },
    {
      "uri": "textures/Material_978_baseColor.png"
    },
    {
      "uri": "textures/Material_147_baseColor.png"
    },
    {
      "uri": "textures/Material_148_baseColor.png"
    },
    {
      "uri": "textures/Material_149_baseColor.png"
    },
    {
      "uri": "textures/Material_973_baseColor.png"
    },
    {
      "uri": "textures/Material_975_baseColor.png"
    },
    {
      "uri": "textures/Material_974_baseColor.png"
    },
    {
      "uri": "textures/Material_976_baseColor.png"
    },
    {
      "uri": "textures/Material_1592_baseColor.png"
    },
    {
      "uri": "textures/Material_2_baseColor.png"
    },
    {
      "uri": "textures/Material_972_baseColor.png"
    },
    {
      "uri": "textures/Material_1594_baseColor.png"
    },
    {
      "uri": "textures/Material_1593_baseColor.png"
    },
    {
      "uri": "textures/Material_1598_baseColor.png"
    },
    {
      "uri": "textures/Material_1597_baseColor.png"
    },
    {
      "uri": "textures/Material_1595_baseColor.png"
    }
  ],
  "materials": [
    {
      "doubleSided": true,
      "name": "Material_1596",
      "pbrMetallicRoughness": {
        "baseColorTexture": {
          "index": 0
        },
        "metallicFactor": 0.0,
        "roughnessFactor": 0.8929713596497552
      }
    },
    {
      "doubleSided": true,
      "name": "Material_977",
      "pbrMetallicRoughness": {
        "baseColorTexture": {
          "index": 1
        },
        "metallicFactor": 0.0,
        "roughnessFactor": 0.8929713596497552
      }
    },
    {
      "doubleSided": true,
      "name": "Material_979",
      "pbrMetallicRoughness": {
        "baseColorTexture": {
          "index": 2
        },
        "metallicFactor": 0.0,
        "roughnessFactor": 0.8929713596497552
      }
    },
    {
      "alphaMode": "BLEND",
      "doubleSided": true,
      "name": "Material_4",
      "pbrMetallicRoughness": {
        "baseColorTexture": {
          "index": 3
        },
        "metallicFactor": 0.0,
        "roughnessFactor": 0.8929713596497552
      }
    },
    {
      "doubleSided": true,
      "name": "Material_150",
      "pbrMetallicRoughness": {
        "baseColorTexture": {
          "index": 4
        },
        "metallicFactor": 0.0,
        "roughnessFactor": 0.8929713596497552
      }
    },
    {
      "alphaMode": "BLEND",
      "doubleSided": true,
      "name": "Material_3",
      "pbrMetallicRoughness": {
        "baseColorTexture": {
          "index": 5
        },
        "metallicFactor": 0.0,
        "roughnessFactor": 0.8929713596497552
      }
    },
    {
      "alphaMode": "BLEND",
      "doubleSided": true,
      "name": "Material_978",
      "pbrMetallicRoughness": {
        "baseColorTexture": {
          "index": 6
        },
        "metallicFactor": 0.0,
        "roughnessFactor": 0.8929713596497552
      }
    },
    {
      "alphaMode": "BLEND",
      "doubleSided": true,
      "name": "Material_147",
      "pbrMetallicRoughness": {
        "baseColorTexture": {
          "index": 7
        },
        "metallicFactor": 0.0,
        "roughnessFactor": 0.8929713596497552
      }
    },
    {
      "alphaMode": "BLEND",
      "doubleSided": true,
      "name": "Material_148",
      "pbrMetallicRoughness": {
        "baseColorTexture": {
          "index": 8
        },
        "metallicFactor": 0.0,
        "roughnessFactor": 0.8929713596497552
      }
    },
    {
      "alphaMode": "BLEND",
      "doubleSided": true,
      "name": "Material_149",
      "pbrMetallicRoughness": {
        "baseColorTexture": {
          "index": 9
        },
        "metallicFactor": 0.0,
        "roughnessFactor": 0.8929713596497552
      }
    },
    {
      "doubleSided": true,
      "name": "Material_973",
      "pbrMetallicRoughness": {
        "baseColorTexture": {
          "index": 10
        },
        "metallicFactor": 0.0,
        "roughnessFactor": 0.8929713596497552
      }
    },
    {
      "doubleSided": true,
      "name": "Material_975",
      "pbrMetallicRoughness": {
        "baseColorTexture": {
          "index": 11
        },
        "metallicFactor": 0.0,
        "roughnessFactor": 0.8929713596497552
      }
    },
    {
      "doubleSided": true,
      "name": "Material_974",
      "pbrMetallicRoughness": {
        "baseColorTexture": {
          "index": 12
        },
        "metallicFactor": 0.0,
        "roughnessFactor": 0.8929713596497552
      }
    },
    {
      "doubleSided": true,
      "name": "Material_976",
      "pbrMetallicRoughness": {
        "baseColorTexture": {
          "index": 13
        },
        "metallicFactor": 0.0,
        "roughnessFactor": 0.8929713596497552
      }
    },
    {
      "doubleSided": true,
      "name": "Material_1592",
      "pbrMetallicRoughness": {
        "baseColorTexture": {
          "index": 14
        },
        "metallicFactor": 0.0,
        "roughnessFactor": 0.8929713596497552
      }
    },
    {
      "alphaMode": "BLEND",
      "doubleSided": true,
      "name": "Material_1599",
      "pbrMetallicRoughness": {
        "baseColorTexture": {
          "index": 3
        },
        "metallicFactor": 0.0,
        "roughnessFactor": 0.8929713596497552
      }
    },
    {
      "alphaMode": "BLEND",
      "doubleSided": true,
      "name": "Material_2",
      "pbrMetallicRoughness": {
        "baseColorTexture": {
          "index": 15
        },
        "metallicFactor": 0.0,
        "roughnessFactor": 0.8929713596497552
      }
    },
    {
      "doubleSided": true,
      "name": "Material_972",
      "pbrMetallicRoughness": {
        "baseColorTexture": {
          "index": 16
        },
        "metallicFactor": 0.0,
        "roughnessFactor": 0.8929713596497552
      }
    },
    {
      "alphaMode": "BLEND",
      "doubleSided": true,
      "name": "Material_1594",
      "pbrMetallicRoughness": {
        "baseColorTexture": {
          "index": 17
        },
        "metallicFactor": 0.0,
        "roughnessFactor": 0.8929713596497552
      }
    },
    {
      "alphaMode": "BLEND",
      "doubleSided": true,
      "name": "Material_1593",
      "pbrMetallicRoughness": {
        "baseColorTexture": {
          "index": 18
        },
        "metallicFactor": 0.0,
        "roughnessFactor": 0.8929713596497552
      }
    },
    {
      "doubleSided": true,
      "name": "Material_1598",
      "pbrMetallicRoughness": {
        "baseColorTexture": {
          "index": 19
        },
        "metallicFactor": 0.0,
        "roughnessFactor": 0.8929713596497552
      }
    },
    {
      "doubleSided": true,
      "name": "Material_1597",
      "pbrMetallicRoughness": {
        "baseColorTexture": {
          "index": 20
        },
        "metallicFactor": 0.0,
        "roughnessFactor": 0.8929713596497552
      }
    },
    {
      "doubleSided": true,
      "name": "Material_1595",
      "pbrMetallicRoughness": {
        "baseColorTexture": {
          "index": 21
        },
        "metallicFactor": 0.0,
        "roughnessFactor": 0.8929713596497552
      }
    }
  ],
  "meshes": [
    {
      "name": "1WALL_09_Material #1596_0",
      "primitives": [
        {
          "attributes": {
            "NORMAL": 1,
            "POSITION": 0,
            "TEXCOORD_0": 2
          },
          "indices": 3,
          "material": 0,
          "mode": 4
        }
      ]
    },
    {
      "name": "1ROAD_07_Material #977_0",
      "primitives": [
        {
          "attributes": {
            "NORMAL": 5,
            "POSITION": 4,
            "TEXCOORD_0": 6
          },
          "indices": 7,
          "material": 1,
          "mode": 4
        }
      ]
    },
    {
      "name": "1ROAD_00_Material #979_0",
      "primitives": [
        {
          "attributes": {
            "NORMAL": 9,
            "POSITION": 8,
            "TEXCOORD_0": 10
          },
          "indices": 11,
          "material": 2,
          "mode": 4
        }
      ]
    },
    {
      "name": "1WALL_07_Material #4_0",
      "primitives": [
        {
          "attributes": {
            "NORMAL": 13,
            "POSITION": 12,
            "TEXCOORD_0": 14,
            "TEXCOORD_1": 15
          },
          "indices": 16,
          "material": 3,
          "mode": 4
        }
      ]
    },
    {
      "name": "1WALL_05_Material #150_0",
      "primitives": [
        {
          "attributes": {
            "NORMAL": 18,
            "POSITION": 17,
            "TEXCOORD_0": 19
          },
          "indices": 20,
          "material": 4,
          "mode": 4
        }
      ]
    },
    {
      "name": "1WALL_04_Material #3_0",
      "primitives": [
        {
          "attributes": {
            "NORMAL": 22,
            "POSITION": 21,
            "TEXCOORD_0": 23,
            "TEXCOORD_1": 24
          },
          "indices": 25,
          "material": 5,
          "mode": 4
        }
      ]
    },
    {
      "name": "1WALL_03_Material #978_0",
      "primitives": [
        {
          "attributes": {
            "NORMAL": 27,
            "POSITION": 26,
            "TEXCOORD_0": 28,
            "TEXCOORD_1": 29
          },
          "indices": 30,
          "material": 6,
          "mode": 4
        }
      ]
    },
    {
      "name": "1WALL_02_Material #147_0",
      "primitives": [
        {
          "attributes": {
            "NORMAL": 32,
            "POSITION": 31,
            "TEXCOORD_0": 33,
            "TEXCOORD_1": 34
          },
          "indices": 35,
          "material": 7,
          "mode": 4
        }
      ]
    },
    {
      "name": "1WALL_01_Material #148_0",
      "primitives": [
        {
          "attributes": {
            "NORMAL": 37,
            "POSITION": 36,
            "TEXCOORD_0": 38,
            "TEXCOORD_1": 39
          },
          "indices": 40,
          "material": 8,
          "mode": 4
        }
      ]
    },
    {
      "name": "1WALL_00_Material #149_0",
      "primitives": [
        {
          "attributes": {
            "NORMAL": 42,
            "POSITION": 41,
            "TEXCOORD_0": 43,
            "TEXCOORD_1": 44
          },
          "indices": 45,
          "material": 9,
          "mode": 4
        }
      ]
    },
    {
      "name": "1ROAD_02_Material #973_0",
      "primitives": [
        {
          "attributes": {
            "NORMAL": 47,
            "POSITION": 46,
            "TEXCOORD_0": 48
          },
          "indices": 49,
          "material": 10,
          "mode": 4
        }
      ]
    },
    {
      "name": "1ROAD_03_Material #975_0",
      "primitives": [
        {
          "attributes": {
            "NORMAL": 51,
            "POSITION": 50,
            "TEXCOORD_0": 52
          },
          "indices": 53,
          "material": 11,
          "mode": 4
        }
      ]
    },
    {
      "name": "1ROAD_04_Material #974_0",
      "primitives": [
        {
          "attributes": {
            "NORMAL": 55,
            "POSITION": 54,
            "TEXCOORD_0": 56
          },
          "indices": 57,
          "material": 12,
          "mode": 4
        }
      ]
    },
    {
      "name": "1ROAD_05_Material #976_0",
      "primitives": [
        {
          "attributes": {
            "NORMAL": 59,
            "POSITION": 58,
            "TEXCOORD_0": 60
          },
          "indices": 61,
          "material": 13,
          "mode": 4
        }
      ]
    },
    {
      "name": "1ROAD_06_Material #1592_0",
      "primitives": [
        {
          "attributes": {
            "NORMAL": 63,
            "POSITION": 62,
            "TEXCOORD_0": 64
          },
          "indices": 65,
          "material": 14,
          "mode": 4
        }
      ]
    },
    {
      "name": "1WALL_08_Material #1599_0",
      "primitives": [
        {
          "attributes": {
            "NORMAL": 67,
            "POSITION": 66,
            "TEXCOORD_0": 68,
            "TEXCOORD_1": 69
          },
          "indices": 70,
          "material": 15,
          "mode": 4
        }
      ]
    },
    {
      "name": "1WALL_06_Material #2_0",
      "primitives": [
        {
          "attributes": {
            "NORMAL": 72,
            "POSITION": 71,
            "TEXCOORD_0": 73,
            "TEXCOORD_1": 74
          },
          "indices": 75,
          "material": 16,
          "mode": 4
        }
      ]
    },
    {
      "name": "1ROAD_01_Material #972_0",
      "primitives": [
        {
          "attributes": {
            "NORMAL": 77,
            "POSITION": 76,
            "TEXCOORD_0": 78
          },
          "indices": 79,
          "material": 17,
          "mode": 4
        }
      ]
    },
    {
      "name": "1WALL_10_Material #1594_0",
      "primitives": [
        {
          "attributes": {
            "NORMAL": 81,
            "POSITION": 80,
            "TEXCOORD_0": 82,
            "TEXCOORD_1": 83
          },
          "indices": 84,
          "material": 18,
          "mode": 4
        }
      ]
    },
    {
      "name": "1WALL_11_Material #1593_0",
      "primitives": [
        {
          "attributes": {
            "NORMAL": 86,
            "POSITION": 85,
            "TEXCOORD_0": 87,
            "TEXCOORD_1": 88
          },
          "indices": 89,
          "material": 19,
          "mode": 4
        }
      ]
    },
    {
      "name": "1WALL_12_Material #1598_0",
      "primitives": [
        {
          "attributes": {
            "NORMAL": 91,
            "POSITION": 90,
            "TEXCOORD_0": 92
          },
          "indices": 93,
          "material": 20,
          "mode": 4
        }
      ]
    },
    {
      "name": "1WALL_13_Material #1597_0",
      "primitives": [
        {
          "attributes": {
            "NORMAL": 95,
            "POSITION": 94,
            "TEXCOORD_0": 96
          },
          "indices": 97,
          "material": 21,
          "mode": 4
        }
      ]
    },
    {
      "name": "1WALL_14_Material #1595_0",
      "primitives": [
        {
          "attributes": {
            "NORMAL": 99,
            "POSITION": 98,
            "TEXCOORD_0": 100
          },
          "indices": 101,
          "material": 22,
          "mode": 4
        }
      ]
    },
    {
      "name": "Object001_Material #1593_0",
      "primitives": [
        {
          "attributes": {
            "NORMAL": 103,
            "POSITION": 102,
            "TEXCOORD_0": 104,
            "TEXCOORD_1": 105
          },
          "indices": 106,
          "material": 19,
          "mode": 4
        }
      ]
    },
    {
      "name": "Object002_Material #1594_0",
      "primitives": [
        {
          "attributes": {
            "NORMAL": 108,
            "POSITION": 107,
            "TEXCOORD_0": 109,
            "TEXCOORD_1": 110
          },
          "indices": 111,
          "material": 18,
          "mode": 4
        }
      ]
    }
  ],
  "nodes": [
    {
      "children": [
        1
      ],
      "matrix": [
        142.85714721679688,
        0.0,
        0.0,
        0.0,
        0.0,
        3.17206588144707e-14,
        -142.85714721679688,
        0.0,
        0.0,
        142.85714721679688,
        3.17206588144707e-14,
        0.0,
        0.0,
        0.0,
        0.0,
        1.0
      ],
      "name": "Sketchfab_model"
    },
    {
      "children": [
        2
      ],
      "matrix": [
        0.009999999776482582,
        0.0,
        0.0,
        0.0,
        0.0,
        0.0,
        0.009999999776482582,
        0.0,
        0.0,
        -0.009999999776482582,
        0.0,
        0.0,
        0.0,
        0.0,
        0.0,
        1.0
      ],
      "name": "ca745d47859e433b88fb7e50236fe70e.fbx"
    },
    {
      "children": [
        3,
        6,
        8,
        10,
        12,
        14,
        16,
        18,
        20,
        22,
        24,
        26,
        28,
        30,
        32,
        34,
        36,
        38,
        40,
        42,
        44,
        47,
        50,
        53,
        55
      ],
      "name": "RootNode"
    },
    {
      "children": [
        4
      ],
      "matrix": [
        1.0,
        0.0,
        0.0,
        0.0,
        0.0,
        2.220446049250313e-16,
        -1.0,
        0.0,
        0.0,
        1.0,
        2.220446049250313e-16,
        0.0,
        -4.420373439788818,
        9.372559547424316,
        8.214109420776367,
        1.0
      ],
      "name": "1WALL_09"
    },
    {
      "children": [
        5
      ],
      "matrix": [
        1.0,
        0.0,
        -0.0,
        0.0,
        0.0,
        1.0,
        0.0,
        0.0,
        0.0,
        0.0,
        1.0,
        0.0,
        6.820065021514893,
        8.214109420776367,
        -9.372559547424316,
        1.0
      ],
      "name": "Object_4"
    },
    {
      "mesh": 0,
      "name": "1WALL_09_Material #1596_0"
    },
    {
      "children": [
        7
      ],
      "matrix": [
        9.999457359313965,
        0.0,
        0.0,
        0.0,
        0.0,
        2.220325558813566e-15,
        -9.999457359313965,
        0.0,
        0.0,
        9.999457359313965,
        2.220325558813566e-15,
        0.0,
        0.0011124610900878906,
        0.00110626220703125,
        0.0002694129943847656,
        1.0
      ],
      "name": "1ROAD_07"
    },
    {
      "mesh": 1,
      "name": "1ROAD_07_Material #977_0"
    },
    {
      "children": [
        9
      ],
      "matrix": [
        9.999457359313965,
        0.0,
        0.0,
        0.0,
        0.0,
        2.220325558813566e-15,
        -9.999457359313965,
        0.0,
        0.0,
        9.999457359313965,
        2.220325558813566e-15,
        0.0,
        0.0011124610900878906,
        0.00110626220703125,
        0.0002694129943847656,
        1.0
      ],
      "name": "1ROAD_00"
    },
    {
      "mesh": 2,
      "name": "1ROAD_00_Material #979_0"
    },
    {
      "children": [
        11
      ],
      "matrix": [
        9.999457359313965,
        0.0,
        0.0,
        0.0,
        0.0,
        2.220325558813566e-15,
        -9.999457359313965,
        0.0,
        0.0,
        9.999457359313965,
        2.220325558813566e-15,
        0.0,
        0.0011124610900878906,
        0.00110626220703125,
        0.0002694129943847656,
        1.0
      ],
      "name": "1WALL_07"
    },
    {
      "mesh": 3,
      "name": "1WALL_07_Material #4_0"
    },
    {
      "children": [
        13
      ],
      "matrix": [
        9.999457359313965,
        0.0,
        0.0,
        0.0,
        0.0,
        2.220325558813566e-15,
        -9.999457359313965,
        0.0,
        0.0,
        9.999457359313965,
        2.220325558813566e-15,
        0.0,
        0.0011124610900878906,
        0.00110626220703125,
        0.0002694129943847656,
        1.0
      ],
      "name": "1WALL_05"
    },
    {
      "mesh": 4,
      "name": "1WALL_05_Material #150_0"
    },
    {
      "children": [
        15
      ],
      "matrix": [
        9.999457359313965,
        0.0,
        0.0,
        0.0,
        0.0,
        2.220325558813566e-15,
        -9.999457359313965,
        0.0,
        0.0,
        9.999457359313965,
        2.220325558813566e-15,
        0.0,
        0.0011124610900878906,
        0.00110626220703125,
        0.0002694129943847656,
        1.0
      ],
      "name": "1WALL_04"
    },
    {
      "mesh": 5,
      "name": "1WALL_04_Material #3_0"
    },
    {
      "children": [
        17
      ],
      "matrix": [
        9.999457359313965,
        0.0,
        0.0,
        0.0,
        0.0,
        2.220325558813566e-15,
        -9.999457359313965,
        0.0,
        0.0,
        9.999457359313965,
        2.220325558813566e-15,
        0.0,
        0.0011124610900878906,
        0.00110626220703125,
        0.0002694129943847656,
        1.0
      ],
      "name": "1WALL_03"
    },
    {
      "mesh": 6,
      "name": "1WALL_03_Material #978_0"
    },
    {
      "children": [
        19
      ],
      "matrix": [
        9.999457359313965,
        0.0,
        0.0,
        0.0,
        0.0,
        2.220325558813566e-15,
        -9.999457359313965,
        0.0,
        0.0,
        9.999457359313965,
        2.220325558813566e-15,
        0.0,
        0.0011124610900878906,
        0.00110626220703125,
        0.0002694129943847656,
        1.0
      ],
      "name": "1WALL_02"
    },
    {
      "mesh": 7,
      "name": "1WALL_02_Material #147_0"
    },
    {
      "children": [
        21
      ],
      "matrix": [
        9.999457359313965,
        0.0,
        0.0,
        0.0,
        0.0,
        2.220325558813566e-15,
        -9.999457359313965,
        0.0,
        0.0,
        9.999457359313965,
        2.220325558813566e-15,
        0.0,
        0.0011124610900878906,
        0.00110626220703125,
        0.0002694129943847656,
        1.0
      ],
      "name": "1WALL_01"
    },
    {
      "mesh": 8,
      "name": "1WALL_01_Material #148_0"
    },
    {
      "children": [
        23
      ],
      "matrix": [
        9.999457359313965,
        0.0,
        0.0,
        0.0,
        0.0,
        2.220325558813566e-15,
        -9.999457359313965,
        0.0,
        0.0,
        9.999457359313965,
        2.220325558813566e-15,
        0.0,
        0.0011124610900878906,
        0.00110626220703125,
        0.0002694129943847656,
        1.0
      ],
      "name": "1WALL_00"
    },
    {
      "mesh": 9,
      "name": "1WALL_00_Material #149_0"
    },
    {
      "children": [
        25
      ],
      "matrix": [
        9.999457359313965,
        0.0,
        0.0,
        0.0,
        0.0,
        2.220325558813566e-15,
        -9.999457359313965,
        0.0,
        0.0,
        9.999457359313965,
        2.220325558813566e-15,
        0.0,
        0.0011124610900878906,
        0.00110626220703125,
        0.0002694129943847656,
        1.0
      ],
      "name": "1ROAD_02"
    },
    {
      "mesh": 10,
      "name": "1ROAD_02_Material #973_0"
    },
    {
      "children": [
        27
      ],
      "matrix": [
        9.999457359313965,
        0.0,
        0.0,
        0.0,
        0.0,
        2.220325558813566e-15,
        -9.999457359313965,
        0.0,
        0.0,
        9.999457359313965,
        2.220325558813566e-15,
        0.0,
        0.0011124610900878906,
        0.00110626220703125,
        0.0002694129943847656,
        1.0
      ],
      "name": "1ROAD_03"
    },
    {
      "mesh": 11,
      "name": "1ROAD_03_Material #975_0"
    },
    {
      "children": [
        29
      ],
      "matrix": [
        9.999457359313965,
        0.0,
        0.0,
        0.0,
        0.0,
        2.220325558813566e-15,
        -9.999457359313965,
        0.0,
        0.0,
        9.999457359313965,
        2.220325558813566e-15,
        0.0,
        0.0011124610900878906,
        0.00110626220703125,
        0.0002694129943847656,
        1.0
      ],
      "name": "1ROAD_04"
    },
    {
      "mesh": 12,
      "name": "1ROAD_04_Material #974_0"
    },
    {
      "children": [
        31
      ],
      "matrix": [
        9.999457359313965,
        0.0,
        0.0,
        0.0,
        0.0,
        2.220325558813566e-15,
        -9.999457359313965,
        0.0,
        0.0,
        9.999457359313965,
        2.220325558813566e-15,
        0.0,
        0.0011124610900878906,
        0.00110626220703125,
        0.0002694129943847656,
        1.0
      ],
      "name": "1ROAD_05"
    },
    {
      "mesh": 13,
      "name": "1ROAD_05_Material #976_0"
    },
    {
      "children": [
        33
      ],
      "matrix": [
        9.999457359313965,
        0.0,
        0.0,
        0.0,
        0.0,
        2.220325558813566e-15,
        -9.999457359313965,
        0.0,
        0.0,
        9.999457359313965,
        2.220325558813566e-15,
        0.0,
        0.0011124610900878906,
        0.00110626220703125,
        0.0002694129943847656,
        1.0
      ],
      "name": "1ROAD_06"
    },
    {
      "mesh": 14,
      "name": "1ROAD_06_Material #1592_0"
    },
    {
      "children": [
        35
      ],
      "matrix": [
        9.999457359313965,
        0.0,
        0.0,
        0.0,
        0.0,
        2.220325558813566e-15,
        -9.999457359313965,
        0.0,
        0.0,
        9.999457359313965,
        2.220325558813566e-15,
        0.0,
        0.0011124610900878906,
        0.00110626220703125,
        0.0002694129943847656,
        1.0
      ],
      "name": "1WALL_08"
    },
    {
      "mesh": 15,
      "name": "1WALL_08_Material #1599_0"
    },
    {
      "children": [
        37
      ],
      "matrix": [
        9.999457359313965,
        0.0,
        0.0,
        0.0,
        0.0,
        2.220325558813566e-15,
        -9.999457359313965,
        0.0,
        0.0,
        9.999457359313965,
        2.220325558813566e-15,
        0.0,
        0.0011124610900878906,
        0.00110626220703125,
        0.0002694129943847656,
        1.0
      ],
      "name": "1WALL_06"
    },
    {
      "mesh": 16,
      "name": "1WALL_06_Material #2_0"
    },
    {
      "children": [
        39
      ],
      "matrix": [
        9.999457359313965,
        0.0,
        0.0,
        0.0,
        0.0,
        2.220325558813566e-15,
        -9.999457359313965,
        0.0,
        0.0,
        9.999457359313965,
        2.220325558813566e-15,
        0.0,
        0.0011124610900878906,
        0.00110626220703125,
        0.0002694129943847656,
        1.0
      ],
      "name": "1ROAD_01"
    },
    {
      "mesh": 17,
      "name": "1ROAD_01_Material #972_0"
    },
    {
      "children": [
        41
      ],
      "matrix": [
        1.0,
        0.0,
        0.0,
        0.0,
        0.0,
        2.220446049250313e-16,
        -1.0,
        0.0,
        0.0,
        1.0,
        2.220446049250313e-16,
        0.0,
        0.0,
        0.0,
        0.0,
        1.0
      ],
      "name": "1WALL_10"
    },
    {
      "mesh": 18,
      "name": "1WALL_10_Material #1594_0"
    },
    {
      "children": [
        43
      ],
      "matrix": [
        1.0,
        0.0,
        0.0,
        0.0,
        0.0,
        2.220446049250313e-16,
        -1.0,
        0.0,
        0.0,
        1.0,
        2.220446049250313e-16,
        0.0,
        0.0,
        0.0,
        0.0,
        1.0
      ],
      "name": "1WALL_11"
    },
    {
      "mesh": 19,
      "name": "1WALL_11_Material #1593_0"
    },
    {
      "children": [
        45
      ],
      "matrix": [
        1.0,
        0.0,
        0.0,
        0.0,
        0.0,
        2.220446049250313e-16,
        -1.0,
        0.0,
        0.0,
        1.0,
        2.220446049250313e-16,
        0.0,
        -0.07568502426147461,
        7.697750091552734,
        -28.702394485473633,
        1.0
      ],
      "name": "1WALL_12"
    },
    {
      "children": [
        46
      ],
      "matrix": [
        1.0,
        0.0,
        -0.0,
        0.0,
        0.0,
        1.0,
        0.0,
        0.0,
        0.0,
        0.0,
        1.0,
        0.0,
        0.07568502426147461,
        -28.702394485473633,
        -7.697750091552734,
        1.0
      ],
      "name": "Object_45"
    },
    {
      "mesh": 20,
      "name": "1WALL_12_Material #1598_0"
    },
    {
      "children": [
        48
      ],
      "matrix": [
        1.0,
        0.0,
        0.0,
        0.0,
        0.0,
        2.220446049250313e-16,
        -1.0,
        0.0,
        0.0,
        1.0,
        2.220446049250313e-16,
        0.0,
        -0.07568502426147461,
        7.697750091552734,
        -28.702394485473633,
        1.0
      ],
      "name": "1WALL_13"
    },
    {
      "children": [
        49
      ],
      "matrix": [
        1.0,
        0.0,
        -0.0,
        0.0,
        0.0,
        1.0,
        0.0,
        0.0,
        0.0,
        0.0,
        1.0,
        0.0,
        0.07568502426147461,
        -28.702394485473633,
        -7.697750091552734,
        1.0
      ],
      "name": "Object_48"
    },
    {
      "mesh": 21,
      "name": "1WALL_13_Material #1597_0"
    },
    {
      "children": [
        51
      ],
      "matrix": [
        1.0,
        0.0,
        0.0,
        0.0,
        0.0,
        2.220446049250313e-16,
        -1.0,
        0.0,
        0.0,
        1.0,
        2.220446049250313e-16,
        0.0,
        -0.07568502426147461,
        7.697750091552734,
        -28.702394485473633,
        1.0
      ],
      "name": "1WALL_14"
    },
    {
      "children": [
        52
      ],
      "matrix": [
        1.0,
        0.0,
        -0.0,
        0.0,
        0.0,
        1.0,
        0.0,
        0.0,
        0.0,
        0.0,
        1.0,
        0.0,
        0.07568502426147461,
        -28.702394485473633,
        -7.697750091552734,
        1.0
      ],
      "name": "Object_51"
    },
    {
      "mesh": 22,
      "name": "1WALL_14_Material #1595_0"
    },
    {
      "children": [
        54
      ],
      "matrix": [
        1.0,
        0.0,
        0.0,
        0.0,
        0.0,
        2.220446049250313e-16,
        -1.0,
        0.0,
        0.0,
        1.0,
        2.220446049250313e-16,
        0.0,
        0.0,
        0.0,
        0.0,
        1.0
      ],
      "name": "Object001"
    },
    {
      "mesh": 23,
      "name": "Object001_Material #1593_0"
    },
    {
      "children": [
        56
      ],
      "matrix": [
        1.0,
        0.0,
        0.0,
        0.0,
        0.0,
        2.220446049250313e-16,
        -1.0,
        0.0,
        0.0,
        1.0,
        2.220446049250313e-16,
        0.0,
        0.0,
        0.0,
        0.0,
        1.0
      ],
      "name": "Object002"
    },
    {
      "mesh": 24,
      "name": "Object002_Material #1594_0"
    }
  ],
  "samplers": [
    {
      "magFilter": 9729,
      "minFilter": 9987,
      "wrapS": 10497,
      "wrapT": 10497
    }
  ],
  "scene": 0,
  "scenes": [
    {
      "name": "Sketchfab_Scene",
      "nodes": [
        0
      ]
    }
  ],
  "textures": [
    {
      "sampler": 0,
      "source": 0
    },
    {
      "sampler": 0,
      "source": 1
    },
    {
      "sampler": 0,
      "source": 2
    },
    {
      "sampler": 0,
      "source": 3
    },
    {
      "sampler": 0,
      "source": 4
    },
    {
      "sampler": 0,
      "source": 5
    },
    {
      "sampler": 0,
      "source": 6
    },
    {
      "sampler": 0,
      "source": 7
    },
    {
      "sampler": 0,
      "source": 8
    },
    {
      "sampler": 0,
      "source": 9
    },
    {
      "sampler": 0,
      "source": 10
    },
    {
      "sampler": 0,
      "source": 11
    },
    {
      "sampler": 0,
      "source": 12
    },
    {
      "sampler": 0,
      "source": 13
    },
    {
      "sampler": 0,
      "source": 14
    },
    {
      "sampler": 0,
      "source": 15
    },
    {
      "sampler": 0,
      "source": 16
    },
    {
      "sampler": 0,
      "source": 17
    },
    {
      "sampler": 0,
      "source": 18
    },
    {
      "sampler": 0,
      "source": 19
    },
    {
      "sampler": 0,
      "source": 20
    },
    {
      "sampler": 0,
      "source": 21
    }
  ]
}
